999
"DXF R12 Output" (www.mydxf.blogspot.com)
 0 
SECTION
 2 
HEADER
 9 
$ACADVER
 1 
AC1009
 9 
$EXTMIN
 10 
 0 
 20 
 0 
 9 
$EXTMAX
 10 
 8.5 
 20 
 11 
 0 
ENDSEC
 0 
SECTION
 2 
ENTITIES
0
LINE
8
Layer 1
10
0.846666
20
6.816680
11
-0.846666
21
5.123340
0
LINE
8
Layer 1
10
0.000000
20
7.381120
11
0.000000
21
4.558900
0
LINE
8
Layer 1
10
2.257780
20
4.841120
11
1.128890
21
3.712230
0
LINE
8
Layer 1
10
1.693330
20
5.405570
11
0.564440
21
4.276680
0
LINE
8
Layer 1
10
1.128890
20
5.970010
11
0.000000
21
4.841120
0
LINE
8
0
10
46.858400
20
-290.499000
11
46.835978
21
-291.800889
0
LINE
8
0
10
46.835978
20
-291.800889
11
46.690961
21
-293.030140
0
LINE
8
0
10
46.690961
20
-293.030140
11
45.515829
21
-294.842468
0
LINE
8
0
10
45.515829
20
-294.842468
11
44.181021
21
-296.563444
0
LINE
8
0
10
44.181021
20
-296.563444
11
42.698388
21
-298.191803
0
LINE
8
0
10
42.698388
20
-298.191803
11
41.079778
21
-299.726280
0
LINE
8
0
10
41.079778
20
-299.726280
11
37.482033
21
-302.508524
0
LINE
8
0
10
37.482033
20
-302.508524
11
33.482588
21
-304.900051
0
LINE
8
0
10
33.482588
20
-304.900051
11
29.176242
21
-306.890734
0
LINE
8
0
10
29.176242
20
-306.890734
11
24.657799
21
-308.470450
0
LINE
8
0
10
24.657799
20
-308.470450
11
20.022059
21
-309.629072
0
LINE
8
0
10
20.022059
20
-309.629072
11
15.363824
21
-310.356476
0
LINE
8
0
10
15.363824
20
-310.356476
11
10.777894
21
-310.642537
0
LINE
8
0
10
10.777894
20
-310.642537
11
6.359071
21
-310.477129
0
LINE
8
0
10
6.359071
20
-310.477129
11
2.202157
21
-309.850127
0
LINE
8
0
10
2.202157
20
-309.850127
11
-1.598047
21
-308.751406
0
LINE
8
0
10
-1.598047
20
-308.751406
11
-3.334757
21
-308.021987
0
LINE
8
0
10
-3.334757
20
-308.021987
11
-4.946740
21
-307.170841
0
LINE
8
0
10
-4.946740
20
-307.170841
11
-6.422144
21
-306.196703
0
LINE
8
0
10
-6.422144
20
-306.196703
11
-7.749120
21
-305.098307
0
LINE
8
0
10
-7.749120
20
-305.098307
11
-8.915818
21
-303.874387
0
LINE
8
0
10
-8.915818
20
-303.874387
11
-9.910387
21
-302.523678
0
LINE
8
0
10
-9.910387
20
-302.523678
11
-10.720978
21
-301.044914
0
LINE
8
0
10
-10.720978
20
-301.044914
11
-11.335739
21
-299.436830
0
LINE
8
0
10
46.858400
20
-288.365000
11
46.858400
21
-290.499000
0
LINE
8
0
10
6.553300
20
-294.364820
11
7.540356
21
-295.689231
0
LINE
8
0
10
7.540356
20
-295.689231
11
8.658704
21
-296.734614
0
LINE
8
0
10
8.658704
20
-296.734614
11
9.896383
21
-297.515394
0
LINE
8
0
10
9.896383
20
-297.515394
11
11.241433
21
-298.045994
0
LINE
8
0
10
11.241433
20
-298.045994
11
12.681890
21
-298.340838
0
LINE
8
0
10
12.681890
20
-298.340838
11
14.205795
21
-298.414352
0
LINE
8
0
10
14.205795
20
-298.414352
11
15.801185
21
-298.280958
0
LINE
8
0
10
15.801185
20
-298.280958
11
17.456100
21
-297.955080
0
LINE
8
0
10
17.456100
20
-297.955080
11
19.076038
21
-297.412466
0
LINE
8
0
10
19.076038
20
-297.412466
11
20.561188
21
-296.635019
0
LINE
8
0
10
20.561188
20
-296.635019
11
21.891612
21
-295.646435
0
LINE
8
0
10
21.891612
20
-295.646435
11
23.047373
21
-294.470409
0
LINE
8
0
10
23.047373
20
-294.470409
11
24.008531
21
-293.130634
0
LINE
8
0
10
24.008531
20
-293.130634
11
24.755151
21
-291.650806
0
LINE
8
0
10
24.755151
20
-291.650806
11
25.267293
21
-290.054620
0
LINE
8
0
10
25.267293
20
-290.054620
11
25.525020
21
-288.365770
0
LINE
8
0
10
-11.335780
20
-299.436870
11
6.553320
21
-294.364860
0
LINE
8
0
10
46.858400
20
-288.365000
11
25.525100
21
-288.365000
 0 
ENDSEC
 0 
EOF