0
SECTION
2
HEADER
9
$INSUNITS
70
4
9
$ACADVER
1
AC1014
9
$HANDSEED
5
FFFF
0
ENDSEC
0
SECTION
2
TABLES
0
TABLE
2
VPORT
5
8
100
AcDbSymbolTable
0
ENDTAB
0
TABLE
2
LTYPE
5
5
100
AcDbSymbolTable
0
LTYPE
5
14
100
AcDbSymbolTableRecord
100
AcDbLinetypeTableRecord
2
BYBLOCK
70
0
0
LTYPE
5
15
100
AcDbSymbolTableRecord
100
AcDbLinetypeTableRecord
2
BYLAYER
70
0
0
ENDTAB
0
TABLE
2
LAYER
5
2
100
AcDbSymbolTable
70
2
0
LAYER
5
50
100
AcDbSymbolTableRecord
100
AcDbLayerTableRecord
2
0
70
0
6
CONTINUOUS
0
ENDTAB
0
TABLE
2
STYLE
5
3
100
AcDbSymbolTable
70
1
0
STYLE
5
11
100
AcDbSymbolTableRecord
100
AcDbTextStyleTableRecord
2
STANDARD
70
0
0
ENDTAB
0
TABLE
2
VIEW
5
6
100
AcDbSymbolTable
70
0
0
ENDTAB
0
TABLE
2
UCS
5
7
100
AcDbSymbolTable
70
0
0
ENDTAB
0
TABLE
2
APPID
5
9
100
AcDbSymbolTable
70
2
0
APPID
5
12
100
AcDbSymbolTableRecord
100
AcDbRegAppTableRecord
2
ACAD
70
0
0
ENDTAB
0
TABLE
2
DIMSTYLE
5
A
100
AcDbSymbolTable
70
1
0
ENDTAB
0
TABLE
2
BLOCK_RECORD
5
1
100
AcDbSymbolTable
70
1
0
BLOCK_RECORD
5
1F
100
AcDbSymbolTableRecord
100
AcDbBlockTableRecord
2
*MODEL_SPACE
0
BLOCK_RECORD
5
1B
100
AcDbSymbolTableRecord
100
AcDbBlockTableRecord
2
*PAPER_SPACE
0
ENDTAB
0
ENDSEC
0
SECTION
2
BLOCKS
0
BLOCK
5
20
100
AcDbEntity
100
AcDbBlockBegin
2
*MODEL_SPACE
0
ENDBLK
5
21
100
AcDbEntity
100
AcDbBlockEnd
0
BLOCK
5
1C
100
AcDbEntity
100
AcDbBlockBegin
2
*PAPER_SPACE
0
ENDBLK
5
1D
100
AcDbEntity
100
AcDbBlockEnd
0
ENDSEC
0
SECTION
2
ENTITIES
0
LINE
5
100
100
AcDbEntity
8
0
100
AcDbLine
10
14.044149134241838
20
23.374528131492177
30
0
11
-20.297542369270133
21
-4.4365714129776146
31
0
0
LINE
5
101
100
AcDbEntity
8
0
100
AcDbLine
10
17.92978231644458
20
26.521249405034691
30
0
11
14.044149134241838
21
23.374528131492177
31
0
0
LINE
5
102
100
AcDbEntity
8
0
100
AcDbLine
10
23.92978231644458
20
41.060416934782474
30
0
11
43.929782316444573
21
41.060416934782474
31
0
0
LINE
5
103
100
AcDbEntity
8
0
100
AcDbLine
10
43.929782316444573
20
41.060416934782474
30
0
11
43.929782316444573
21
21.060416934782474
31
0
0
LINE
5
104
100
AcDbEntity
8
0
100
AcDbLine
10
43.929782316444573
20
21.060416934782474
30
0
11
23.92978231644458
21
21.060416934782474
31
0
0
LINE
5
105
100
AcDbEntity
8
0
100
AcDbLine
10
23.92978231644458
20
21.060416934782474
30
0
11
23.92978231644458
21
41.060416934782474
31
0
0
LINE
5
106
100
AcDbEntity
8
0
100
AcDbLine
10
1.221559632972804
20
12.990347928801889
30
0
11
4.3300661787349988
21
15.507724947635904
31
0
0
LINE
5
107
100
AcDbEntity
8
0
100
AcDbLine
10
-8.3048353574695284
20
5.2755410052106102
30
0
11
-2.6640735492299381
21
9.8436266552593743
31
0
0
LINE
5
108
100
AcDbEntity
8
0
100
AcDbLine
10
-4.199999906122688
20
7.7999998256564229
30
0
11
5.4740225568206524
21
16.477963992942342
31
0
0
ARC
5
109
100
AcDbEntity
8
0
100
AcDbCircle
10
13.955398358481768
20
21.775724322647481
30
0
40
10.000000000000009
210
0
220
0
230
1
100
AcDbArc
50
211.99032352773443
51
355.89808747145696
0
LINE
5
110
100
AcDbEntity
8
0
100
AcDbLine
10
43.929782316444573
20
21.060416934782474
30
0
11
43.929782316444573
21
19.060416934782477
31
0
0
SPLINE
5
111
100
AcDbEntity
8
0
100
AcDbSpline
70
4
71
5
72
21
73
15
74
0
42
0.000000001
43
0.0000000001
44
0.0000000001
40
0
40
0
40
0
40
0
40
0
40
0
40
0.10000000000000001
40
0.20000000000000001
40
0.30000000000000004
40
0.40000000000000002
40
0.5
40
0.59999999999999998
40
0.69999999999999996
40
0.79999999999999993
40
0.89999999999999991
40
1
40
1
40
1
40
1
40
1
40
1
41
1
41
1
41
1
41
1
41
1
41
1
41
1
41
1
41
1
41
1
41
1
41
1
41
1
41
1
41
1
10
-7.139145402808702
20
6.21955738727336
30
0
10
-6.1829841797521903
20
5.1020283467683649
30
0
10
-4.2549759224914965
20
3.1173089169438
30
0
10
-1.3156204542000027
20
0.89057759301046113
30
0
10
2.7300003858896122
20
-0.73698153987943127
30
0
10
8.1485637930249606
20
-1.3484536458986267
30
0
10
13.993766239908933
20
-1.2787261190417756
30
0
10
20.211223006697956
20
-1.0109258370293615
30
0
10
26.280386479287145
20
0.070267136883548811
30
0
10
31.802370527176681
20
2.5064869066032709
30
0
10
36.637092834034164
20
6.4199542852855975
30
0
10
39.91386677675176
20
10.755390945400919
30
0
10
42.046462128263322
20
14.658122238123797
30
0
10
43.325737494956869
20
17.545433812870684
30
0
10
43.929782316444573
20
19.060416934782477
30
0
0
LWPOLYLINE
5
112
100
AcDbEntity
8
0
100
AcDbPolyline
90
4
70
1
43
0.0
10
31.129782316444587
20
21.060416934782474
10
36.729782316444584
20
21.060416934782474
10
36.729782316444584
20
22.060416934782477
10
31.129782316444587
20
22.060416934782477
0
LINE
5
113
100
AcDbEntity
8
0
100
AcDbLine
10
-28.964644043529596
20
-2.965143830825554
30
0
11
-32.6789858716418
21
1.6213983515739065
31
0
0
LINE
5
114
100
AcDbEntity
8
0
100
AcDbLine
10
5.0315647858793024
20
-11.488371431705968
30
0
11
11.065815849060257
21
-18.939583065217526
31
0
0
LINE
5
115
100
AcDbEntity
8
0
100
AcDbLine
10
18.761582871564045
20
-12.707282518460437
30
0
11
11.065815849060257
21
-18.939583065217526
31
0
0
LINE
5
116
100
AcDbEntity
8
0
100
AcDbLine
10
-22.525520751028424
20
-5.7236738730207017
30
0
11
-28.127069334170134
21
-3.5736381824557943
31
0
0
LINE
5
117
100
AcDbEntity
8
0
100
AcDbLine
10
32.629640997232634
20
32.312898757516024
30
0
11
38.629640997232634
21
32.312898757516024
31
0
0
ENDSEC
0
SECTION
2
OBJECTS
0
DICTIONARY
5
C
100
AcDbDictionary
3
ACAD_GROUP
350
D
3
ACAD_MLINESTYLE
350
17
0
DICTIONARY
5
D
100
AcDbDictionary
0
DICTIONARY
5
1A
330
C
100
AcDbDictionary
0
DICTIONARY
5
17
100
AcDbDictionary
0
ENDSEC
0
EOF
